<svg width="206" height="120" viewBox="0 0 206 120" fill="none" xmlns="http://www.w3.org/2000/svg">
<g clip-path="url(#clip0_112521_5044)">
<path d="M125.361 67.8739L101.617 31.0261C101.617 31.0261 95.1548 20.6903 85.5356 20.6903C75.9165 20.6903 71.2585 29.0793 71.2585 29.0793L39.0994 78.374L50.6717 78.3587L79.3765 33.7238C82.5314 28.9571 85.2342 29.343 85.2342 29.343C89.1769 29.2494 91.6985 33.1258 91.6985 33.1258L93.7528 36.238L66.2706 78.3779H77.7762L99.3339 45.2441L116.045 71.7694C119.803 78.6606 129.721 78.3607 129.721 78.3607C140.09 78.3607 141.894 71.9204 141.894 71.9204C129.271 75.216 125.365 67.8758 125.365 67.8758L125.361 67.8739Z" fill="#004F69"/>
<path d="M152.442 69.2075C148.256 63.0308 111.234 4.66506 111.234 4.66506C107.477 -0.577353 99.5113 0.0206339 99.5113 0.0206339C88.6905 -0.279314 88.0896 7.06082 88.0896 7.06082C88.0896 7.06082 98.9105 3.61428 102.666 9.15664C106.853 15.3333 143.876 73.699 143.876 73.699C147.634 78.9415 155.597 78.3435 155.597 78.3435C165.1 78.3435 166.901 71.3033 166.901 71.3033C166.901 71.3033 156.198 74.7498 152.442 69.2075Z" fill="#004F69"/>
<path d="M23.0894 111.77L16.524 102.58H16.463L9.8652 111.77V111.833H23.0894V111.77ZM29.9924 119.998C28.8021 119.998 28.495 119.75 27.9457 118.974L25.6243 115.713H7.36075L5.0089 118.974C4.45956 119.75 4.15437 119.998 2.96223 119.998H0.946083C0.305188 119.998 0 119.564 0 119.096C0 118.911 0.0610376 118.693 0.213632 118.508L13.4683 99.8481C14.0177 99.0705 14.3248 98.824 15.515 98.824H17.6837C18.874 98.824 19.1792 99.0724 19.7304 99.8481L32.9851 118.508C33.1072 118.693 33.1682 118.911 33.1682 119.096C33.1682 119.562 32.863 119.998 32.2507 119.998H29.9924Z" fill="#004F69"/>
<path d="M37.5915 119.998C36.7351 119.998 36.3097 119.564 36.3097 118.724V100.095C36.3097 99.2577 36.737 98.8221 37.5915 98.8221H39.5772C40.4317 98.8221 40.8303 99.2577 40.8303 100.095V118.724C40.8303 119.562 40.4317 119.998 39.5772 119.998H37.5915Z" fill="#004F69"/>
<path d="M70.115 105.902C70.115 103.789 69.1079 102.704 67.0307 102.704H50.4762V109.162H67.0307C69.1079 109.162 70.115 108.044 70.115 105.902ZM71.7344 119.998C70.5747 119.998 70.2066 119.874 69.4436 119.129L63.0919 113.044H50.4781V118.726C50.4781 119.564 50.0814 120 49.2249 120H47.2393C46.3848 120 45.9575 119.566 45.9575 118.726V100.096C45.9575 99.2596 46.3848 98.824 47.2393 98.824H68.0684C72.4974 98.824 74.7882 101.122 74.7882 105.654C74.7882 110.186 72.711 112.39 68.7112 112.639V112.702L75.0324 118.384C75.309 118.632 75.3986 118.913 75.3986 119.19C75.3986 119.626 75.0934 119.998 74.5746 119.998H71.7344Z" fill="#004F69"/>
<path d="M106.026 100.096V101.432C106.026 102.299 105.599 102.704 104.773 102.704H85.8685C83.9744 102.704 83.0893 103.574 83.0893 105.251C83.0893 106.678 83.7932 107.393 85.197 107.393H101.233C105.019 107.393 106.944 109.41 106.944 113.26C106.944 117.7 104.897 119.998 99.3082 119.998H79.6998C78.8434 119.998 78.4467 119.564 78.4467 118.724V117.39C78.4467 116.521 78.8434 116.116 79.6998 116.116H99.4303C101.385 116.116 102.301 115.247 102.301 113.539C102.301 112.018 101.599 111.271 100.132 111.271H84.0679C80.3426 111.271 78.4486 109.284 78.4486 105.528C78.4486 101.088 80.4952 98.8202 85.9924 98.8202H104.775C105.599 98.8202 106.028 99.2558 106.028 100.095" fill="#004F69"/>
<path d="M115.703 102.704V109.752H131.919C134.241 109.752 135.341 108.573 135.341 106.244C135.341 103.916 134.241 102.704 131.919 102.704H115.703ZM115.703 113.632V118.724C115.703 119.562 115.306 119.996 114.449 119.996H112.464C111.609 119.996 111.182 119.562 111.182 118.724V100.095C111.182 99.2577 111.609 98.8221 112.464 98.8221H132.713C137.539 98.8221 140.013 101.336 140.013 106.242C140.013 111.149 137.539 113.632 132.713 113.632H115.701H115.703Z" fill="#004F69"/>
<path d="M163.279 111.77L156.714 102.58H156.653L150.055 111.77V111.833H163.279V111.77ZM170.184 119.998C168.994 119.998 168.687 119.75 168.138 118.974L165.816 115.713H147.553L145.201 118.974C144.651 119.75 144.346 119.998 143.154 119.998H141.138C140.497 119.998 140.192 119.564 140.192 119.096C140.192 118.911 140.253 118.693 140.406 118.508L153.66 99.8481C154.21 99.0705 154.517 98.824 155.707 98.824H157.876C159.066 98.824 159.371 99.0724 159.922 99.8481L173.177 118.508C173.299 118.693 173.36 118.911 173.36 119.096C173.36 119.562 173.055 119.998 172.445 119.998H170.184Z" fill="#004F69"/>
<path d="M200.566 119.998C199.65 119.998 199.284 119.78 198.672 119.222L180.896 102.704H180.835V118.724C180.835 119.562 180.439 119.998 179.582 119.998H177.719C176.862 119.998 176.437 119.564 176.437 118.724V100.095C176.437 99.2577 176.864 98.8221 177.719 98.8221H181.873C182.819 98.8221 183.155 99.0399 183.767 99.5978L201.512 116.116H201.573V100.095C201.573 99.2577 202 98.8221 202.855 98.8221H204.718C205.573 98.8221 206 99.2577 206 100.095V118.724C206 119.562 205.573 119.998 204.718 119.998H200.564H200.566Z" fill="#004F69"/>
</g>
<defs>
<clipPath id="clip0_112521_5044">
<rect width="206" height="120" fill="white"/>
</clipPath>
</defs>
</svg>
