<svg width="109" height="16" viewBox="0 0 109 16" fill="none" xmlns="http://www.w3.org/2000/svg">
<g clip-path="url(#clip0_22475_3442)">
<path d="M37.0531 10.176L34.4511 6.593H34.4271L31.8121 10.176V10.2H37.0531V10.176ZM39.7891 13.383C39.3171 13.383 39.1961 13.286 38.9781 12.983L38.0581 11.712H30.8191L29.8871 12.983C29.6691 13.286 29.5481 13.383 29.0761 13.383H28.2771C28.0231 13.383 27.9021 13.214 27.9021 13.032C27.9021 12.959 27.9261 12.875 27.9871 12.802L33.2411 5.527C33.4591 5.224 33.5801 5.127 34.0521 5.127H34.9121C35.3841 5.127 35.5051 5.224 35.7231 5.527L40.9771 12.802C41.0251 12.875 41.0501 12.959 41.0501 13.032C41.0501 13.214 40.9291 13.383 40.6871 13.383H39.7911H39.7891Z" fill="white"/>
<path d="M42.8 13.383C42.461 13.383 42.292 13.214 42.292 12.886V5.623C42.292 5.296 42.461 5.126 42.8 5.126H43.587C43.926 5.126 44.083 5.296 44.083 5.623V12.886C44.083 13.213 43.926 13.383 43.587 13.383H42.8Z" fill="white"/>
<path d="M55.6922 7.888C55.6922 7.065 55.2922 6.641 54.4692 6.641H47.9082V9.159H54.4692C55.2922 9.159 55.6922 8.723 55.6922 7.888ZM56.3332 13.383C55.8732 13.383 55.7282 13.334 55.4252 13.044L52.9072 10.671H47.9072V12.886C47.9072 13.213 47.7502 13.383 47.4112 13.383H46.6242C46.2852 13.383 46.1162 13.214 46.1162 12.886V5.623C46.1162 5.296 46.2852 5.126 46.6242 5.126H54.8802C56.6362 5.126 57.5432 6.022 57.5432 7.789C57.5432 9.556 56.7202 10.416 55.1342 10.512V10.536L57.6402 12.751C57.7492 12.848 57.7862 12.957 57.7862 13.066C57.7862 13.235 57.6652 13.381 57.4592 13.381H56.3332V13.383Z" fill="white"/>
<path d="M69.9251 5.624V6.145C69.9251 6.484 69.7561 6.641 69.4291 6.641H61.9361C61.1861 6.641 60.8341 6.98 60.8341 7.634C60.8341 8.191 61.1121 8.469 61.6691 8.469H68.0241C69.5251 8.469 70.2881 9.256 70.2881 10.757C70.2881 12.488 69.4771 13.384 67.2621 13.384H59.4911C59.1521 13.384 58.9951 13.215 58.9951 12.888V12.368C58.9951 12.029 59.1521 11.871 59.4911 11.871H67.3111C68.0861 11.871 68.4491 11.532 68.4491 10.867C68.4491 10.274 68.1711 9.983 67.5901 9.983H61.2231C59.7461 9.983 58.9961 9.208 58.9961 7.743C58.9961 6.012 59.8071 5.128 61.9861 5.128H69.4311C69.7581 5.128 69.9271 5.298 69.9271 5.625" fill="white"/>
<path d="M73.76 6.641V9.389H80.188C81.108 9.389 81.543 8.929 81.543 8.021C81.543 7.113 81.107 6.641 80.188 6.641H73.76ZM73.76 10.902V12.887C73.76 13.214 73.603 13.383 73.264 13.383H72.477C72.138 13.383 71.969 13.214 71.969 12.887V5.624C71.969 5.297 72.138 5.128 72.477 5.128H80.503C82.415 5.128 83.396 6.109 83.396 8.021C83.396 9.933 82.415 10.902 80.503 10.902H73.76Z" fill="white"/>
<path d="M92.6171 10.176L90.0141 6.593H89.9901L87.3751 10.176V10.2H92.6161V10.176H92.6171ZM95.3531 13.383C94.8811 13.383 94.7601 13.286 94.5421 12.983L93.6221 11.712H86.3831L85.4511 12.983C85.2331 13.286 85.1121 13.383 84.6401 13.383H83.8411C83.5871 13.383 83.4661 13.214 83.4661 13.032C83.4661 12.959 83.4901 12.875 83.5511 12.802L88.8051 5.527C89.0231 5.224 89.1441 5.127 89.6161 5.127H90.4761C90.9481 5.127 91.0691 5.224 91.2871 5.527L96.5411 12.802C96.5891 12.875 96.6141 12.959 96.6141 13.032C96.6141 13.214 96.4931 13.383 96.2511 13.383H95.3551H95.3531Z" fill="white"/>
<path d="M107.395 13.383C107.032 13.383 106.887 13.298 106.644 13.081L99.599 6.641H99.575V12.887C99.575 13.214 99.418 13.384 99.079 13.384H98.34C98.001 13.384 97.832 13.215 97.832 12.887V5.624C97.832 5.297 98.001 5.127 98.34 5.127H99.986C100.361 5.127 100.494 5.212 100.737 5.43L107.77 11.87H107.794V5.624C107.794 5.297 107.963 5.127 108.302 5.127H109.04C109.379 5.127 109.548 5.297 109.548 5.624V12.887C109.548 13.214 109.378 13.384 109.04 13.384H107.394L107.395 13.383Z" fill="white"/>
<path d="M18.375 13.64L13.728 6.439C13.728 6.439 12.463 4.419 10.581 4.419C8.69897 4.419 7.78697 6.058 7.78697 6.058L1.49097 15.692L3.75597 15.689L9.37397 6.967C9.99197 6.036 10.52 6.111 10.52 6.111C11.292 6.093 11.785 6.85 11.785 6.85L12.187 7.458L6.80797 15.693H9.05997L13.28 9.218L16.551 14.401C17.287 15.747 19.228 15.689 19.228 15.689C21.258 15.689 21.611 14.43 21.611 14.43C19.14 15.074 18.376 13.64 18.376 13.64H18.375Z" fill="white"/>
<path d="M23.6761 13.9C22.8571 12.693 15.6101 1.287 15.6101 1.287C14.8741 0.263002 13.3161 0.380002 13.3161 0.380002C11.1981 0.322002 11.0801 1.756 11.0801 1.756C11.0801 1.756 13.1981 1.083 13.9331 2.166C14.7531 3.373 21.9991 14.779 21.9991 14.779C22.7341 15.803 24.2931 15.686 24.2931 15.686C26.1531 15.686 26.5051 14.31 26.5051 14.31C26.5051 14.31 24.4101 14.983 23.6751 13.9H23.6761Z" fill="white"/>
</g>
<defs>
<clipPath id="clip0_22475_3442">
<rect width="109" height="16" fill="white"/>
</clipPath>
</defs>
</svg>
